<?xml version="1.0" encoding="utf-8"?>
<!DOCTYPE svg PUBLIC "-//W3C//DTD SVG 20010904//EN" "http://www.w3.org/TR/2001/REC-SVG-20010904/DTD/svg10.dtd">
<svg version="1.0" xmlns="http://www.w3.org/2000/svg" width="480pt" height="650pt" viewBox="0 0 480 650" style="" preserveAspectRatio="xMidYMid meet">
<g fill="#1D3C51FD" stroke="#1D3C51FD">
<path d="M 210.500 85.104 C 153.984 92.624 104.807 119.432 71.271 161.000 C 54.046 182.350 42.910 204.837 36.604 231.000 C 32.720 247.117 31.957 253.074 31.357 272.000 C 30.291 305.635 35.598 330.232 49.481 356.000 C 54.010 364.406 56.313 368.169 62.000 376.454 C 64.185 379.637 74.153 392.047 76.494 394.498 C 77.597 395.653 80.086 398.376 82.025 400.549 C 83.963 402.722 89.792 408.325 94.978 413.000 C 113.585 429.775 115.221 431.497 118.261 437.500 C 122.433 445.741 123.974 452.133 123.988 461.250 L 124.000 469.000 131.981 469.000 C 139.885 469.000 139.967 468.974 140.522 466.250 C 142.494 456.567 147.931 444.085 152.257 439.306 C 154.243 437.113 154.243 437.109 152.030 434.306 C 150.812 432.763 146.964 427.450 143.478 422.500 L 137.139 413.500 152.142 398.750 C 160.394 390.638 167.452 384.000 167.827 384.000 C 168.455 384.000 178.730 391.557 187.346 398.355 L 190.965 401.211 196.232 398.288 C 199.130 396.680 204.990 394.111 209.255 392.579 C 213.520 391.047 217.198 389.489 217.428 389.116 C 217.658 388.744 218.639 382.716 219.607 375.721 L 221.367 363.003 226.934 361.853 L 232.500 360.703 232.360 318.102 C 232.243 282.481 231.952 274.364 230.583 268.569 C 229.682 264.757 228.585 261.157 228.145 260.569 C 227.705 259.981 226.530 257.250 225.535 254.500 C 224.540 251.750 223.225 248.825 222.613 248.000 C 222.001 247.175 220.473 244.454 219.218 241.952 C 217.014 237.558 202.266 218.822 197.672 214.579 C 191.528 208.904 184.006 202.854 184.058 203.629 C 184.089 204.108 185.102 205.896 186.308 207.603 C 187.513 209.309 189.847 212.684 191.494 215.103 C 193.140 217.521 197.192 223.100 200.497 227.500 C 207.324 236.589 209.646 240.018 212.351 245.000 C 213.396 246.925 214.575 248.725 214.971 249.000 C 216.207 249.857 217.056 254.847 216.070 255.457 C 215.555 255.775 213.190 255.318 210.816 254.441 C 208.442 253.564 204.025 252.012 201.000 250.993 C 186.763 246.195 177.218 241.519 164.500 233.112 C 159.000 229.477 154.125 226.502 153.667 226.501 C 153.208 226.501 153.208 226.122 153.667 225.660 C 154.125 225.199 153.349 223.849 151.943 222.660 C 149.344 220.465 141.534 211.143 139.241 207.500 C 136.927 203.823 130.017 189.514 130.009 188.380 C 130.004 187.764 129.062 184.389 127.915 180.880 C 126.451 176.398 125.665 170.707 125.272 161.750 L 124.713 149.000 131.606 149.006 C 140.867 149.013 159.504 152.244 165.444 154.872 C 168.090 156.043 170.707 157.000 171.261 157.000 C 172.777 157.000 185.924 163.855 190.680 167.125 C 192.979 168.706 195.291 170.000 195.818 170.000 C 196.344 170.000 197.838 171.346 199.137 172.991 C 200.437 174.636 202.138 175.986 202.917 175.991 C 203.696 175.996 204.036 176.297 203.673 176.660 C 203.310 177.023 203.845 177.903 204.862 178.616 C 205.878 179.328 209.476 183.573 212.855 188.049 C 216.235 192.525 219.052 196.032 219.115 195.843 C 219.179 195.655 219.305 195.950 219.395 196.500 C 219.485 197.050 221.214 200.875 223.237 205.000 C 227.710 214.118 233.000 228.191 233.000 230.968 C 233.000 232.085 233.389 233.000 233.865 233.000 C 234.341 233.000 235.010 218.938 235.351 201.750 C 235.692 184.563 236.235 168.025 236.558 165.000 C 237.444 156.684 242.070 132.637 243.002 131.500 C 243.452 130.950 244.142 128.700 244.535 126.500 C 245.822 119.297 253.997 104.043 263.677 90.784 C 267.700 85.275 268.544 85.829 253.432 84.061 C 240.803 82.583 226.904 82.921 210.500 85.104 M 121.777 241.250 L 122.053 256.000 108.527 256.000 L 95.000 256.000 95.000 241.667 C 95.000 233.783 95.313 227.021 95.695 226.638 C 96.077 226.256 102.040 226.068 108.945 226.222 L 121.500 226.500 121.777 241.250 M 181.778 319.250 L 182.056 333.000 168.528 333.000 L 155.000 333.000 155.000 318.971 L 155.000 304.942 168.250 305.221 L 181.500 305.500 181.778 319.250 M 152.000 288.444 L 152.000 301.889 138.913 302.194 C 131.715 302.362 125.640 302.313 125.413 302.083 C 125.186 301.854 125.000 295.667 125.000 288.333 L 125.000 275.000 138.500 275.000 L 152.000 275.000 152.000 288.444 "/></g>
<g fill="#1D3C51FD" stroke="#1D3C51FD">
<path d="M 301.500 123.998 C 289.284 136.633 287.747 138.389 280.064 148.500 C 278.392 150.700 276.531 153.084 275.928 153.798 C 273.465 156.715 262.000 176.360 262.000 177.664 C 262.000 178.437 261.358 180.067 260.574 181.285 C 259.790 182.503 257.885 188.000 256.340 193.500 L 253.532 203.500 253.241 263.250 C 253.049 302.828 253.290 323.000 253.956 323.000 C 254.509 323.000 255.162 321.988 255.406 320.750 C 255.650 319.513 256.551 315.350 257.409 311.500 C 258.267 307.650 259.248 302.025 259.589 299.000 C 260.478 291.124 264.972 277.935 268.268 273.527 C 268.691 272.962 270.266 270.613 271.768 268.308 C 275.382 262.762 284.283 253.592 290.500 249.010 C 295.506 245.321 306.302 239.810 311.000 238.547 C 312.375 238.177 314.400 237.493 315.500 237.026 C 319.030 235.529 331.631 234.000 340.443 234.000 L 349.000 234.000 349.000 240.276 C 349.000 254.831 345.051 271.926 339.304 282.249 C 335.203 289.615 318.000 310.667 318.000 308.320 C 318.000 307.973 317.213 308.367 316.250 309.195 C 309.581 314.929 289.234 326.712 278.500 331.055 C 275.515 332.263 268.919 335.053 265.349 336.619 C 263.616 337.378 261.784 338.000 261.277 338.000 C 260.771 338.000 258.760 338.788 256.807 339.750 L 253.258 341.500 253.070 351.250 C 252.901 360.040 253.061 361.006 254.691 361.056 C 255.686 361.087 258.043 361.650 259.928 362.306 C 263.071 363.401 263.463 364.000 264.635 369.500 C 265.338 372.800 266.425 378.674 267.049 382.554 L 268.185 389.608 275.842 392.488 C 280.054 394.071 285.786 396.634 288.581 398.184 C 291.375 399.733 294.390 401.000 295.279 401.000 C 296.169 401.000 301.416 397.400 306.939 393.000 C 312.462 388.600 317.452 385.000 318.027 385.000 C 319.162 385.000 347.052 409.422 348.197 411.418 C 348.581 412.087 348.131 413.788 347.197 415.198 C 345.738 417.403 336.499 430.518 333.500 434.642 C 332.798 435.608 333.015 436.833 334.231 438.759 C 338.068 444.834 342.010 453.684 343.152 458.787 C 344.488 464.759 346.153 466.001 352.815 465.999 C 354.842 465.998 360.213 466.516 364.750 467.150 L 373.000 468.303 373.000 488.605 L 373.000 508.906 369.250 509.947 C 367.188 510.520 361.563 510.991 356.750 510.994 L 348.000 511.000 348.000 513.918 C 348.000 515.523 347.727 517.548 347.393 518.418 C 346.205 521.514 392.135 520.069 395.450 516.906 C 395.972 516.408 397.177 516.000 398.127 516.000 C 401.493 516.000 413.559 508.874 417.630 504.481 C 424.533 497.033 425.502 494.135 425.483 481.000 C 425.473 473.746 424.790 466.285 423.634 460.793 C 421.876 452.439 421.874 451.891 423.570 447.293 C 424.543 444.657 425.886 441.825 426.555 441.000 C 427.223 440.175 429.462 436.245 431.529 432.267 L 435.288 425.033 432.394 420.870 C 430.802 418.580 429.069 416.124 428.542 415.412 C 427.848 414.474 428.912 412.949 432.415 409.866 L 437.245 405.615 436.629 399.723 C 436.290 396.483 435.043 390.134 433.858 385.615 C 432.399 380.051 431.925 376.213 432.391 373.728 C 433.345 368.643 437.329 364.217 441.687 363.399 C 447.766 362.258 458.208 358.095 459.606 356.253 C 463.534 351.079 462.510 341.723 456.867 331.243 C 452.830 323.743 437.127 297.112 432.549 290.000 C 431.310 288.075 428.237 283.302 425.721 279.393 C 418.341 267.928 415.995 261.369 416.027 252.280 C 416.042 248.001 416.468 240.225 416.973 235.000 C 417.896 225.456 417.026 209.892 414.876 197.500 C 413.373 188.836 406.327 169.217 401.922 161.430 C 395.958 150.889 387.615 139.720 379.041 130.800 L 369.582 120.960 365.912 128.301 C 353.692 152.748 334.131 174.124 313.500 185.576 C 303.214 191.285 296.527 194.600 291.250 196.606 C 287.813 197.913 284.213 199.398 283.250 199.905 C 279.772 201.739 268.406 205.140 264.250 205.590 C 258.930 206.167 258.897 205.687 263.500 194.568 C 265.425 189.918 267.000 185.461 267.000 184.664 C 267.000 183.866 267.563 182.987 268.250 182.709 C 268.938 182.432 270.614 180.021 271.976 177.352 C 273.337 174.684 277.562 167.550 281.364 161.500 C 285.167 155.450 289.207 148.925 290.344 147.000 C 291.481 145.075 292.809 143.223 293.296 142.885 C 293.783 142.547 294.703 141.374 295.340 140.278 C 295.978 139.182 297.738 136.431 299.250 134.163 C 300.763 131.895 302.000 129.378 302.000 128.570 C 302.000 127.761 302.585 126.740 303.300 126.300 C 305.142 125.167 308.741 119.814 309.153 117.594 C 309.347 116.549 305.966 119.378 301.500 123.998 "/></g>
<g fill="#B8944CFD" stroke="#B8944CFD">
<path d="M 365.000 33.656 C 352.992 36.003 346.003 37.651 338.198 39.973 C 327.140 43.263 308.099 52.497 301.500 57.771 C 300.950 58.210 297.304 60.707 293.398 63.319 C 289.492 65.931 282.347 72.103 277.522 77.034 C 272.696 81.965 268.394 86.000 267.961 86.000 C 267.527 86.000 265.833 87.913 264.196 90.250 L 261.219 94.500 264.189 91.500 C 267.615 88.039 267.555 88.920 264.000 94.244 C 262.625 96.304 260.992 97.802 260.372 97.573 C 259.109 97.106 257.000 98.869 257.000 100.391 C 257.000 100.936 257.661 100.509 258.468 99.441 C 261.226 95.795 260.000 98.732 253.385 111.616 C 249.747 118.702 247.047 123.488 247.385 122.250 C 249.008 116.311 248.967 115.678 247.175 119.000 C 246.136 120.925 245.007 124.075 244.666 126.000 L 244.045 129.500 245.585 127.000 L 247.125 124.500 246.551 127.000 C 243.695 139.428 240.916 145.550 243.282 134.200 C 243.674 132.319 243.584 131.139 243.072 131.456 C 242.578 131.761 241.857 133.921 241.469 136.255 C 241.081 138.590 240.594 141.400 240.386 142.500 C 240.178 143.600 239.780 146.075 239.501 148.000 L 238.995 151.500 240.393 147.500 C 242.033 142.804 242.526 145.690 240.991 151.007 C 239.288 156.908 237.019 192.358 236.928 214.500 C 236.881 226.050 236.615 234.938 236.338 234.250 C 235.479 232.121 233.001 232.860 232.985 235.250 C 232.972 237.069 232.784 237.213 232.000 236.000 C 230.755 234.073 230.705 229.700 231.937 230.461 C 233.159 231.216 232.330 226.700 230.504 222.651 L 229.083 219.500 229.634 222.500 C 229.938 224.150 230.371 226.400 230.598 227.500 L 231.011 229.500 230.071 227.500 C 229.555 226.400 227.779 221.900 226.124 217.500 C 222.078 206.740 218.712 199.996 214.372 193.955 C 212.381 191.183 210.989 188.678 211.279 188.387 C 211.570 188.097 213.229 189.925 214.966 192.450 C 216.955 195.341 218.564 196.769 219.312 196.307 C 219.965 195.903 220.135 195.689 219.689 195.831 C 219.244 195.973 217.224 193.853 215.202 191.120 C 213.180 188.387 211.261 186.577 210.939 187.099 C 210.617 187.620 209.488 187.092 208.431 185.923 C 206.583 183.882 206.581 183.813 208.371 184.150 C 209.944 184.446 209.813 183.995 207.528 181.250 C 206.040 179.463 204.334 178.000 203.737 178.000 C 203.140 178.000 203.708 179.125 205.000 180.500 C 206.292 181.875 206.820 183.000 206.174 183.000 C 205.528 183.000 205.000 182.601 205.000 182.113 C 205.000 180.916 192.919 171.256 185.552 166.562 C 182.281 164.478 175.756 161.265 171.052 159.423 C 166.349 157.581 163.377 156.057 164.450 156.037 C 167.851 155.972 164.824 154.187 158.540 152.552 C 155.262 151.698 151.437 151.046 150.040 151.102 C 147.852 151.191 147.958 151.313 150.801 151.986 C 152.616 152.416 154.416 153.098 154.801 153.501 C 155.185 153.904 153.925 153.883 152.000 153.454 C 150.075 153.025 144.225 152.366 139.000 151.991 L 129.500 151.308 137.500 151.054 C 147.953 150.723 143.791 149.193 132.500 149.216 C 128.100 149.225 125.175 149.415 126.000 149.639 C 127.208 149.966 127.419 151.452 127.085 157.273 C 126.746 163.176 126.524 163.950 125.871 161.500 C 125.375 159.639 125.250 161.537 125.542 166.500 C 125.802 170.900 126.573 176.300 127.257 178.500 L 128.500 182.500 128.084 179.000 C 127.855 177.075 127.630 173.700 127.584 171.500 C 127.524 168.649 127.865 169.511 128.771 174.500 C 129.470 178.350 130.661 183.075 131.416 185.000 C 137.685 200.968 142.579 209.763 148.806 216.250 C 150.786 218.313 151.903 220.000 151.288 220.000 C 150.085 220.000 142.000 210.311 142.000 208.869 C 142.000 208.391 141.513 208.000 140.917 208.000 C 139.379 208.000 139.966 209.074 144.500 214.546 C 149.669 220.786 152.564 223.632 152.250 222.167 C 151.804 220.085 153.407 220.959 158.402 225.522 C 163.887 230.531 163.457 231.650 157.830 227.012 C 154.646 224.387 154.125 224.231 153.550 225.731 C 153.189 226.671 153.216 227.117 153.609 226.724 C 154.002 226.331 155.902 227.213 157.831 228.684 C 159.759 230.155 162.077 231.414 162.980 231.480 C 166.100 231.710 171.174 234.274 169.975 235.015 C 168.553 235.894 172.273 238.625 180.000 242.374 C 184.418 244.518 185.008 244.641 183.000 243.001 C 181.625 241.877 178.288 239.980 175.584 238.785 C 172.880 237.589 171.171 236.443 171.786 236.238 C 172.401 236.033 175.964 237.447 179.702 239.381 C 189.747 244.575 196.941 247.695 202.000 249.049 C 205.754 250.054 206.169 250.387 204.500 251.057 C 202.755 251.757 202.728 251.868 204.285 251.930 C 205.267 251.968 207.157 252.712 208.486 253.583 C 209.815 254.453 211.711 254.962 212.701 254.714 C 213.972 254.394 213.547 254.040 211.250 253.506 C 209.463 253.090 208.000 252.367 208.000 251.900 C 208.000 251.432 209.154 251.488 210.565 252.025 C 211.976 252.561 213.369 253.000 213.661 253.000 C 214.513 253.000 208.138 242.040 203.378 235.321 C 198.946 229.065 198.103 227.328 200.100 228.562 C 201.488 229.420 199.641 225.787 197.692 223.828 C 196.966 223.098 194.600 219.837 192.436 216.582 C 190.271 213.327 187.454 209.123 186.176 207.239 C 184.899 205.355 184.115 203.551 184.436 203.231 C 185.446 202.221 180.747 198.001 178.576 197.970 C 176.784 197.943 176.723 197.809 178.129 196.987 C 179.381 196.257 180.890 197.017 184.629 200.263 C 190.471 205.334 196.201 210.851 193.750 209.045 C 192.776 208.327 192.000 208.199 192.000 208.755 C 192.000 210.389 194.633 212.078 196.227 211.467 C 197.174 211.103 199.530 212.894 202.775 216.444 C 209.767 224.094 220.157 238.029 219.759 239.223 C 219.579 239.764 217.316 237.026 214.731 233.138 C 209.638 225.480 197.082 211.585 196.122 212.545 C 195.796 212.870 196.506 213.894 197.699 214.818 C 201.695 217.917 217.033 237.440 219.658 242.769 C 221.086 245.668 222.647 248.282 223.127 248.578 C 224.289 249.296 224.229 248.342 222.945 245.684 C 221.917 243.556 221.930 243.551 223.467 245.471 C 224.334 246.556 224.798 248.085 224.496 248.870 C 223.932 250.341 226.627 258.723 228.236 260.500 C 229.275 261.648 228.205 256.441 226.862 253.816 C 226.388 252.889 226.014 251.764 226.030 251.316 C 226.093 249.646 228.262 254.384 231.295 262.812 L 234.422 271.500 234.767 316.250 L 235.113 361.000 243.056 361.000 L 251.000 361.000 251.191 351.750 L 251.383 342.500 252.000 352.000 L 252.617 361.500 252.927 352.000 C 253.097 346.775 253.197 342.202 253.148 341.838 C 253.099 341.473 254.508 340.596 256.279 339.887 L 259.500 338.599 255.500 338.792 C 252.531 338.935 252.016 338.768 253.500 338.141 C 257.337 336.522 261.196 335.873 260.525 336.960 C 259.633 338.403 261.613 338.259 265.349 336.607 C 267.082 335.841 269.400 334.829 270.500 334.358 L 272.500 333.501 270.500 333.663 C 269.400 333.752 267.375 334.108 266.000 334.454 C 264.625 334.800 265.300 334.332 267.500 333.415 C 269.700 332.498 275.550 329.863 280.500 327.558 C 290.041 323.117 298.724 319.884 291.480 323.470 C 286.500 325.936 286.560 325.893 287.193 326.526 C 287.831 327.164 300.893 320.332 303.000 318.259 C 304.207 317.071 303.874 317.097 301.300 318.391 C 296.642 320.732 295.914 320.330 300.110 317.734 C 302.096 316.505 305.246 314.515 307.110 313.311 C 309.449 311.800 310.345 311.567 310.000 312.558 C 309.718 313.367 311.356 312.682 313.750 310.991 C 316.088 309.339 318.000 308.204 318.000 308.469 C 318.000 309.466 329.738 296.273 333.541 291.000 C 338.526 284.090 342.413 277.000 341.217 277.000 C 340.716 277.000 339.817 278.013 339.220 279.250 C 338.624 280.488 338.105 280.975 338.068 280.333 C 338.030 279.691 339.012 276.991 340.249 274.333 C 342.337 269.846 343.184 269.963 341.464 274.500 C 340.934 275.899 341.027 276.199 341.773 275.500 C 343.499 273.883 346.941 263.041 347.468 257.562 L 347.955 252.500 346.469 256.500 L 344.984 260.500 345.506 256.238 C 347.273 241.808 347.307 237.055 345.650 236.419 C 344.749 236.073 344.260 235.388 344.565 234.895 C 345.911 232.718 317.804 235.036 315.500 237.293 C 314.845 237.934 315.363 238.035 317.000 237.585 C 318.375 237.207 323.100 236.750 327.500 236.569 C 331.900 236.389 333.925 236.421 332.000 236.640 C 321.821 237.799 314.267 239.239 311.075 240.631 C 299.738 245.572 292.186 250.175 285.713 256.091 C 281.661 259.793 277.882 262.472 277.091 262.204 C 276.095 261.867 275.877 262.237 276.347 263.462 C 276.780 264.590 276.009 266.473 274.142 268.848 C 272.563 270.857 270.330 274.300 269.180 276.500 C 266.952 280.762 266.368 280.793 267.975 276.565 C 268.512 275.154 268.624 274.012 268.225 274.026 C 266.535 274.086 259.627 293.100 260.289 295.868 C 260.538 296.908 260.956 296.411 261.440 294.500 C 261.858 292.850 262.635 289.767 263.166 287.649 C 263.697 285.531 264.363 284.030 264.646 284.312 C 264.929 284.595 264.457 287.573 263.597 290.929 C 262.737 294.285 261.121 302.311 260.005 308.765 C 258.889 315.219 257.194 322.750 256.238 325.500 C 254.603 330.205 254.003 329.129 255.533 324.235 C 256.108 322.397 255.930 322.090 254.592 322.603 C 253.070 323.187 252.954 318.544 253.083 262.368 C 253.160 228.891 253.024 202.400 252.781 203.500 C 252.538 204.600 252.538 203.250 252.782 200.500 C 253.789 189.135 267.462 158.355 274.153 152.390 L 276.274 150.500 274.549 154.000 L 272.824 157.500 275.412 154.594 C 276.835 152.996 278.000 150.835 278.000 149.791 C 278.000 148.748 279.125 146.238 280.500 144.215 C 281.875 142.191 283.000 140.908 283.000 141.363 C 283.000 141.819 282.051 143.524 280.891 145.153 C 279.731 146.782 279.007 148.340 279.282 148.615 C 279.557 148.890 280.837 147.633 282.127 145.821 C 283.417 144.009 285.304 141.696 286.320 140.680 C 287.336 139.664 287.900 138.566 287.573 138.240 C 287.246 137.913 286.323 138.513 285.521 139.573 C 284.720 140.633 284.049 140.993 284.032 140.372 C 283.991 138.932 286.711 136.659 288.851 136.347 C 289.758 136.214 291.444 134.844 292.598 133.303 L 294.695 130.500 291.197 133.500 C 285.672 138.237 287.839 134.921 295.741 126.546 C 299.723 122.324 303.464 119.169 304.054 119.533 C 304.644 119.898 305.998 119.407 307.063 118.443 C 308.345 117.282 309.000 117.113 309.000 117.941 C 309.000 119.467 305.093 125.197 303.300 126.300 C 302.585 126.740 301.962 127.865 301.916 128.800 C 301.869 129.735 301.307 131.539 300.666 132.809 C 300.025 134.079 301.845 131.655 304.712 127.424 C 307.578 123.192 310.104 119.228 310.325 118.615 C 310.546 118.002 311.112 117.862 311.584 118.304 C 312.056 118.747 311.960 119.422 311.371 119.804 C 310.782 120.187 309.717 121.625 309.006 123.000 C 306.447 127.945 291.482 149.972 290.671 149.986 C 290.215 149.994 291.677 147.413 293.921 144.250 C 296.164 141.088 297.553 138.351 297.006 138.169 C 296.460 137.987 295.571 138.999 295.031 140.419 C 294.491 141.838 293.672 143.000 293.210 143.000 C 292.748 143.000 291.511 144.688 290.461 146.750 C 287.656 152.260 287.629 152.347 289.000 151.500 C 289.710 151.061 290.094 151.147 289.880 151.696 C 288.942 154.102 276.574 173.908 276.227 173.560 C 276.013 173.346 276.340 172.233 276.954 171.086 C 277.568 169.939 277.681 169.000 277.204 169.000 C 275.848 169.000 273.685 173.681 274.461 174.937 C 274.845 175.558 273.674 179.018 271.861 182.628 C 270.047 186.237 268.401 188.702 268.202 188.106 C 268.003 187.510 269.275 184.515 271.028 181.452 C 272.781 178.388 273.947 175.614 273.620 175.287 C 273.294 174.960 272.350 176.312 271.523 178.291 C 270.696 180.271 269.430 182.252 268.709 182.695 C 267.157 183.649 264.458 191.695 264.790 194.380 C 264.918 195.414 264.589 197.828 264.060 199.745 C 263.098 203.228 263.100 203.230 266.049 202.615 C 274.226 200.911 275.533 200.806 274.000 201.981 C 272.743 202.944 272.824 203.047 274.500 202.613 C 275.600 202.328 277.850 201.781 279.500 201.398 C 281.150 201.015 283.400 200.052 284.500 199.258 C 286.409 197.880 286.386 197.850 284.000 198.598 C 282.625 199.028 280.375 199.407 279.000 199.440 C 277.625 199.473 279.294 198.767 282.709 197.872 C 286.125 196.976 288.825 196.573 288.709 196.975 C 288.594 197.377 289.625 197.271 291.000 196.739 C 292.627 196.110 293.029 195.596 292.152 195.270 C 291.370 194.979 292.605 193.961 295.089 192.849 C 297.446 191.793 299.943 191.148 300.636 191.414 C 302.061 191.961 308.414 189.081 307.594 188.260 C 307.301 187.968 305.884 188.501 304.444 189.444 C 303.005 190.388 301.597 190.930 301.316 190.650 C 301.036 190.369 302.752 189.147 305.131 187.933 C 307.509 186.720 311.162 184.598 313.248 183.217 C 315.334 181.837 317.298 180.965 317.613 181.280 C 317.928 181.595 316.682 182.673 314.843 183.676 C 313.004 184.679 312.298 185.365 313.272 185.201 C 315.273 184.864 323.603 179.451 324.597 177.843 C 324.954 177.265 324.052 177.575 322.592 178.532 C 321.132 179.488 319.685 180.018 319.376 179.709 C 319.067 179.400 320.149 178.457 321.780 177.614 C 323.412 176.770 325.016 176.350 325.346 176.679 C 325.676 177.009 327.645 175.995 329.723 174.425 C 334.116 171.107 345.546 159.381 344.029 159.750 C 342.276 160.176 342.913 158.635 345.881 155.269 C 347.448 153.492 350.441 149.554 352.532 146.519 C 354.622 143.483 356.519 141.186 356.746 141.413 C 357.317 141.984 354.322 146.606 349.795 152.139 C 345.291 157.645 344.661 160.047 349.046 155.000 C 352.928 150.531 364.298 132.422 363.022 132.740 C 362.491 132.873 361.130 134.673 359.997 136.740 C 358.622 139.248 358.157 139.668 358.599 138.000 C 358.964 136.625 360.025 134.375 360.957 133.000 C 361.888 131.625 363.234 129.038 363.947 127.250 C 364.659 125.463 365.650 124.000 366.147 124.000 C 366.644 124.000 366.332 125.392 365.452 127.093 C 364.572 128.794 364.073 130.406 364.343 130.676 C 365.200 131.533 369.087 121.669 368.497 120.132 C 368.187 119.323 368.316 118.399 368.785 118.080 C 370.100 117.185 374.697 104.030 376.921 94.798 C 381.114 77.392 383.214 50.137 381.389 36.821 C 380.780 32.377 380.764 32.362 376.639 32.276 C 374.363 32.229 369.125 32.850 365.000 33.656 M 183.893 206.750 C 193.248 218.923 199.111 227.222 198.669 227.664 C 198.147 228.186 195.940 225.406 187.425 213.500 C 183.884 208.550 180.124 203.488 179.069 202.250 C 178.014 201.013 177.501 200.000 177.928 200.000 C 178.356 200.000 181.040 203.038 183.893 206.750 M 327.138 174.824 C 326.695 174.646 329.745 171.515 333.916 167.866 L 341.500 161.233 334.722 168.190 C 330.994 172.017 327.581 175.002 327.138 174.824 M 309.418 115.392 C 309.355 116.002 309.236 116.377 309.152 116.227 C 309.069 116.077 307.875 116.691 306.500 117.592 C 302.604 120.145 303.544 118.531 308.750 113.728 C 311.363 111.319 312.607 110.458 311.515 111.816 C 310.424 113.174 309.480 114.783 309.418 115.392 "/></g>
<g fill="#1D3C51FD" stroke="#1D3C51FD">
<path d="M 228.990 430.875 C 210.945 434.815 195.201 446.316 186.379 462.000 C 183.903 466.402 179.355 479.297 178.532 484.250 L 177.909 488.000 148.000 488.000 L 118.091 488.000 117.496 491.250 C 117.169 493.038 117.036 499.657 117.201 505.961 L 117.500 517.421 121.000 518.165 C 122.925 518.574 128.489 519.223 133.365 519.607 L 142.229 520.304 143.677 523.902 C 144.473 525.881 145.772 528.918 146.562 530.651 C 147.353 532.384 148.000 534.195 148.000 534.675 C 148.000 535.156 149.953 538.975 152.340 543.163 L 156.679 550.778 152.827 556.508 C 150.709 559.659 147.345 564.880 145.352 568.109 L 141.728 573.981 145.669 578.240 C 153.535 586.741 167.868 600.000 169.192 600.000 C 169.937 600.000 175.897 595.990 182.436 591.090 L 194.324 582.180 198.341 584.715 C 203.050 587.688 216.296 594.000 217.826 594.000 C 219.699 594.000 220.316 596.145 222.073 608.752 C 223.022 615.561 223.975 621.308 224.190 621.524 C 224.406 621.739 232.664 621.975 242.541 622.048 L 260.500 622.180 261.175 617.340 C 264.371 594.435 264.235 594.976 266.949 594.350 C 268.352 594.027 270.400 593.209 271.500 592.533 C 272.600 591.856 275.300 590.724 277.500 590.016 C 279.700 589.308 283.129 587.911 285.121 586.910 L 288.741 585.091 298.121 594.033 C 303.279 598.951 307.835 602.981 308.245 602.987 C 308.655 602.994 304.155 598.115 298.245 592.144 C 292.335 586.173 285.738 578.635 283.584 575.394 C 281.430 572.152 278.529 567.773 277.137 565.662 L 274.606 561.823 282.053 554.589 C 290.206 546.670 291.084 545.655 295.611 538.932 C 302.611 528.536 309.000 508.283 309.000 496.490 C 309.000 490.000 305.614 475.141 302.736 469.000 C 289.119 439.947 258.925 424.338 228.990 430.875 M 255.455 467.522 C 261.738 470.494 268.332 477.280 271.296 483.824 C 274.464 490.818 274.363 503.746 271.089 510.399 C 267.910 516.857 263.965 521.230 258.208 524.679 C 253.841 527.296 252.739 527.500 243.000 527.500 C 233.361 527.500 232.119 527.276 227.849 524.766 C 217.132 518.466 209.881 504.946 211.485 494.254 C 213.310 482.081 219.135 473.356 229.000 468.014 C 233.752 465.441 235.563 465.034 242.312 465.018 C 248.612 465.004 251.156 465.488 255.455 467.522 "/></g>
<g fill="#D0D9E0FD" stroke="#D0D9E0FD">
<path d="M 125.695 275.638 C 125.313 276.021 125.000 282.108 125.000 289.167 L 125.000 302.000 138.529 302.000 L 152.058 302.000 151.779 288.750 L 151.500 275.500 138.945 275.222 C 132.040 275.068 126.077 275.256 125.695 275.638 M 151.000 288.500 L 151.000 301.000 138.500 301.000 L 126.000 301.000 126.000 288.500 L 126.000 276.000 138.500 276.000 L 151.000 276.000 151.000 288.500 "/></g>
<g fill="#B8944CFD" stroke="#B8944CFD">
<path d="M 230.055 265.500 C 230.052 266.050 230.533 268.525 231.126 271.000 C 232.360 276.162 232.948 360.911 231.750 361.150 C 231.338 361.233 231.563 361.345 232.250 361.400 C 233.910 361.533 234.566 284.872 232.993 274.605 C 232.089 268.703 230.073 262.456 230.055 265.500 "/></g>
<g fill="#D0D9E0FD" stroke="#D0D9E0FD">
<path d="M 177.456 483.383 L 176.783 486.971 146.641 487.235 L 116.500 487.500 116.500 502.992 L 116.500 518.484 123.000 519.670 C 126.575 520.323 132.130 520.997 135.344 521.168 C 140.391 521.438 141.374 521.822 142.554 523.990 C 144.162 526.946 144.408 526.203 143.025 522.565 C 142.188 520.363 141.444 520.000 137.775 520.001 C 135.424 520.002 129.776 519.482 125.224 518.846 L 116.948 517.690 117.224 503.095 L 117.500 488.500 147.641 488.235 L 177.783 487.971 178.456 484.383 C 178.826 482.410 178.904 480.571 178.629 480.296 C 178.354 480.021 177.826 481.410 177.456 483.383 "/></g>
<g fill="#D0D9E0FD" stroke="#D0D9E0FD">
<path d="M 40.000 338.252 C 40.000 339.313 46.929 354.753 49.214 358.783 C 59.962 377.742 82.809 405.586 94.931 414.500 L 99.011 417.500 94.852 413.500 C 78.129 397.419 68.906 386.788 58.620 371.739 C 53.234 363.859 45.881 350.442 43.419 344.000 C 41.818 339.810 40.000 336.754 40.000 338.252 "/></g>
<g fill="#D0D9E0FD" stroke="#D0D9E0FD">
<path d="M 155.000 318.971 C 155.000 331.695 155.163 332.993 156.750 332.921 C 157.795 332.874 157.997 332.639 157.250 332.338 C 156.341 331.971 156.000 328.314 156.000 318.917 L 156.000 306.000 168.000 306.000 L 180.000 306.000 180.000 318.927 C 180.000 330.397 179.803 331.905 178.250 332.311 C 176.891 332.666 176.987 332.794 178.678 332.884 C 180.588 332.986 180.926 332.353 181.421 327.750 C 181.731 324.863 181.876 318.675 181.743 314.000 L 181.500 305.500 168.250 305.221 L 155.000 304.942 155.000 318.971 "/></g>
<g fill="#D0D9E0FD" stroke="#D0D9E0FD">
<path d="M 346.200 515.750 L 346.500 521.500 356.500 521.802 C 368.030 522.150 389.476 520.432 391.871 518.968 C 393.165 518.177 392.986 518.067 391.000 518.432 C 384.864 519.559 378.429 519.964 363.500 520.165 L 347.500 520.380 347.359 515.726 L 347.219 511.072 356.359 510.744 L 365.500 510.415 355.700 510.208 L 345.900 510.000 346.200 515.750 "/></g>
<g fill="#D0D9E0FD" stroke="#D0D9E0FD">
<path d="M 101.387 129.365 C 81.506 145.561 64.009 165.812 53.050 185.309 C 51.255 188.504 50.005 191.339 50.274 191.608 C 50.543 191.877 52.441 189.037 54.491 185.298 C 64.454 167.131 84.609 143.661 101.725 130.295 C 106.328 126.701 109.909 123.576 109.684 123.351 C 109.458 123.125 105.725 125.832 101.387 129.365 "/></g>
<g fill="#D0D9E0FD" stroke="#D0D9E0FD">
<path d="M 310.000 390.946 C 305.875 394.171 300.864 398.003 298.863 399.462 L 295.227 402.115 290.629 399.807 L 286.031 397.500 290.546 400.363 L 295.061 403.226 298.780 400.666 C 300.826 399.258 305.985 395.382 310.244 392.053 C 314.503 388.724 318.192 386.000 318.442 386.000 C 318.692 386.000 320.158 387.170 321.698 388.601 C 323.239 390.031 329.563 395.749 335.750 401.307 C 341.938 406.865 347.000 411.894 347.000 412.483 C 347.000 413.617 344.433 417.628 342.327 419.786 C 341.636 420.493 340.943 421.778 340.786 422.642 C 340.629 423.505 342.188 422.065 344.250 419.442 C 346.313 416.818 348.000 413.890 348.000 412.934 C 348.000 411.262 320.009 384.956 318.320 385.041 C 317.869 385.064 314.125 387.721 310.000 390.946 "/></g>
<g fill="#D0D9E0FD" stroke="#D0D9E0FD">
<path d="M 95.220 241.279 L 95.000 256.058 108.250 255.779 L 121.500 255.500 121.484 241.250 L 121.468 227.000 121.234 241.000 L 121.000 255.000 108.527 255.000 L 96.055 255.000 95.748 240.750 L 95.441 226.500 95.220 241.279 "/></g>
<g fill="#D0D9E0FD" stroke="#D0D9E0FD">
<path d="M 189.475 585.911 C 175.808 596.302 170.427 600.000 168.971 600.000 C 168.093 600.000 166.081 598.650 164.500 597.000 C 162.919 595.350 161.167 594.000 160.607 594.000 C 160.047 594.000 161.519 595.800 163.878 598.000 C 166.237 600.200 168.500 602.000 168.907 602.000 C 169.313 602.000 175.329 597.774 182.276 592.609 C 189.222 587.443 195.039 583.528 195.203 583.909 C 195.643 584.933 208.102 591.651 211.000 592.427 C 212.375 592.795 209.810 591.123 205.300 588.712 C 200.790 586.301 196.504 583.833 195.775 583.228 C 194.765 582.390 193.267 583.028 189.475 585.911 "/></g>
<g fill="#C9AC71FD" stroke="#C9AC71FD">
<path d="M 237.750 169.875 C 237.338 171.731 237.000 176.644 237.000 180.792 C 237.000 184.940 236.745 188.078 236.433 187.766 C 236.121 187.454 235.978 198.067 236.115 211.349 L 236.364 235.500 237.253 205.500 C 237.743 189.000 238.224 173.475 238.322 171.000 C 238.487 166.835 238.444 166.752 237.750 169.875 "/></g>
<g fill="#C9AC71FD" stroke="#C9AC71FD">
<path d="M 233.766 301.343 C 233.913 316.279 234.165 330.975 234.327 334.000 C 234.489 337.025 234.700 325.325 234.796 308.000 C 234.891 290.675 234.639 275.979 234.235 275.343 C 233.831 274.706 233.620 286.406 233.766 301.343 "/></g>
<g fill="#D0D9E0FD" stroke="#D0D9E0FD">
<path d="M 284.131 576.000 C 284.790 577.375 290.730 584.013 297.332 590.750 C 303.934 597.488 308.833 603.000 308.219 603.000 C 307.605 603.000 303.017 599.112 298.023 594.360 C 289.761 586.497 288.744 585.822 286.722 586.865 L 284.500 588.011 286.840 587.409 C 288.794 586.907 290.738 588.336 298.624 596.070 C 305.752 603.060 308.351 605.049 309.221 604.179 C 310.090 603.310 308.427 601.026 302.437 594.867 C 290.901 583.007 288.810 580.765 285.717 576.941 C 283.659 574.396 283.246 574.151 284.131 576.000 "/></g>
<g fill="#D0D9E0FD" stroke="#D0D9E0FD">
<path d="M 139.589 411.504 C 137.980 413.960 138.076 414.195 144.603 423.754 C 148.263 429.114 151.878 434.215 152.637 435.088 C 153.837 436.469 153.428 437.575 149.509 443.542 C 147.029 447.317 144.933 450.990 144.850 451.703 C 144.437 455.272 144.697 455.136 146.718 450.729 C 147.922 448.104 150.300 444.016 152.004 441.644 L 155.101 437.331 147.111 425.416 L 139.120 413.501 141.234 411.251 C 142.397 410.013 142.872 409.000 142.289 409.000 C 141.707 409.000 140.492 410.127 139.589 411.504 "/></g>
<g fill="#D0D9E0FD" stroke="#D0D9E0FD">
<path d="M 120.430 444.188 C 121.989 449.916 123.116 459.192 122.831 463.956 L 122.500 469.500 131.000 469.755 C 135.675 469.895 140.014 469.670 140.643 469.255 C 141.271 468.840 141.928 466.475 142.102 464.000 C 142.366 460.239 142.286 459.993 141.616 462.500 C 141.175 464.150 140.601 466.288 140.340 467.250 C 139.939 468.727 138.646 469.000 132.066 469.000 L 124.267 469.000 123.770 459.250 C 123.463 453.219 122.644 448.165 121.622 446.000 C 120.714 444.075 120.177 443.259 120.430 444.188 "/></g>
<g fill="#D0D9E0FD" stroke="#D0D9E0FD">
<path d="M 214.789 510.715 C 216.371 515.522 223.256 522.225 229.714 525.247 C 235.581 527.992 236.809 528.207 244.310 527.802 C 249.240 527.535 253.694 526.706 255.500 525.719 C 259.347 523.617 258.547 523.594 252.557 525.635 C 249.036 526.835 245.795 527.122 240.387 526.713 C 229.039 525.855 222.758 521.764 215.280 510.360 C 214.164 508.659 214.122 508.689 214.789 510.715 "/></g>
<g fill="#C9AC71FD" stroke="#C9AC71FD">
<path d="M 234.443 351.748 L 234.500 361.500 243.000 361.500 L 251.500 361.500 251.476 352.250 L 251.452 343.000 251.226 352.000 L 251.000 361.000 243.036 361.000 L 235.072 361.000 234.729 351.498 L 234.385 341.995 234.443 351.748 "/></g>
<g fill="#D0D9E0FD" stroke="#D0D9E0FD">
<path d="M 418.048 264.290 C 417.941 266.050 434.066 293.471 441.892 304.835 C 444.752 308.989 440.296 299.992 437.020 295.000 C 435.396 292.525 433.137 288.925 432.000 287.000 C 430.863 285.075 428.612 281.475 426.998 279.000 C 425.384 276.525 422.721 272.025 421.080 269.000 C 419.439 265.975 418.075 263.855 418.048 264.290 "/></g>
<g fill="#D0D9E0FD" stroke="#D0D9E0FD">
<path d="M 147.105 563.004 C 143.747 568.024 141.000 572.920 141.000 573.885 C 141.000 574.849 145.163 579.570 150.250 584.377 L 159.500 593.115 150.750 584.203 C 145.938 579.301 142.004 574.663 142.009 573.895 C 142.014 573.128 144.723 568.496 148.029 563.603 C 151.335 558.710 153.853 554.520 153.625 554.292 C 153.397 554.063 150.463 557.984 147.105 563.004 "/></g>
<g fill="#D0D9E0FD" stroke="#D0D9E0FD">
<path d="M 211.194 435.989 C 204.154 439.745 197.987 444.633 193.438 450.060 C 188.357 456.123 184.588 461.922 185.280 462.613 C 185.595 462.928 186.534 461.868 187.367 460.258 C 191.865 451.560 203.206 441.165 214.356 435.522 C 216.477 434.449 217.827 433.478 217.356 433.364 C 216.885 433.250 214.112 434.431 211.194 435.989 "/></g>
<g fill="#D0D9E0FD" stroke="#D0D9E0FD">
<path d="M 423.123 457.500 C 423.082 458.050 423.476 460.348 423.998 462.608 C 426.807 474.772 426.975 487.395 424.424 494.500 C 423.896 495.969 424.009 496.222 424.849 495.454 C 427.129 493.367 428.183 483.289 427.074 474.174 C 426.155 466.617 423.332 454.702 423.123 457.500 "/></g>
<g fill="#C9AC71FD" stroke="#C9AC71FD">
<path d="M 262.792 291.000 C 261.843 293.052 259.749 301.051 259.519 303.500 C 258.864 310.489 257.661 317.000 257.023 317.000 C 256.613 317.000 256.501 318.238 256.775 319.750 C 257.049 321.263 256.909 322.160 256.463 321.743 C 256.018 321.327 255.526 322.002 255.370 323.243 C 255.214 324.485 254.954 326.625 254.793 328.000 C 254.079 334.088 259.000 315.328 260.957 304.500 C 263.630 289.711 263.730 288.971 262.792 291.000 "/></g>
<g fill="#D0D9E0FD" stroke="#D0D9E0FD">
<path d="M 370.324 468.704 C 372.026 469.144 372.126 470.503 371.824 489.089 C 371.646 500.041 371.838 509.002 372.250 509.001 C 372.663 509.000 373.000 499.775 373.000 488.500 L 373.000 468.000 370.750 468.116 C 368.945 468.209 368.860 468.325 370.324 468.704 "/></g>
<g fill="#C9AC71FD" stroke="#C9AC71FD">
<path d="M 203.259 235.154 C 208.115 242.007 214.522 253.000 213.661 253.000 C 213.369 253.000 211.976 252.561 210.565 252.025 C 208.898 251.391 208.000 251.391 208.000 252.025 C 208.000 252.561 208.900 253.068 210.000 253.150 C 211.100 253.233 212.563 253.345 213.250 253.400 C 215.041 253.543 214.831 249.818 212.930 247.733 C 212.045 246.761 210.687 244.736 209.913 243.233 C 209.139 241.730 207.014 238.383 205.191 235.794 C 203.368 233.206 201.928 230.731 201.991 230.294 C 202.054 229.858 201.353 229.344 200.434 229.154 C 199.291 228.917 200.185 230.816 203.259 235.154 "/></g>
<g fill="#C9AC71FD" stroke="#C9AC71FD">
<path d="M 310.000 118.936 C 310.000 119.451 307.525 123.570 304.500 128.089 C 301.475 132.608 299.000 136.762 299.000 137.320 C 299.000 137.877 298.690 138.024 298.312 137.645 C 297.933 137.267 297.534 137.571 297.423 138.321 C 297.313 139.071 295.556 142.006 293.518 144.842 C 291.480 147.679 290.192 149.994 290.656 149.986 C 291.589 149.970 307.204 126.842 309.117 122.642 C 309.779 121.189 310.699 120.000 311.161 120.000 C 311.622 120.000 312.000 119.550 312.000 119.000 C 312.000 118.450 311.550 118.000 311.000 118.000 C 310.450 118.000 310.000 118.421 310.000 118.936 "/></g>
<g fill="#C9AC71FD" stroke="#C9AC71FD">
<path d="M 177.750 239.625 C 181.738 241.537 185.000 243.554 185.000 244.109 C 185.000 244.664 185.450 244.840 186.000 244.500 C 186.550 244.160 187.000 244.385 187.000 245.000 C 187.000 245.615 187.419 245.859 187.931 245.542 C 188.752 245.035 195.675 247.675 197.000 249.000 C 197.275 249.275 198.625 249.665 200.000 249.866 C 205.553 250.678 206.266 250.431 202.000 249.172 C 196.811 247.641 189.343 244.366 179.829 239.448 C 176.160 237.552 172.560 236.034 171.829 236.075 C 171.098 236.116 173.763 237.714 177.750 239.625 "/></g>
<g fill="#D0D9E0FD" stroke="#D0D9E0FD">
<path d="M 136.500 106.665 C 126.911 111.485 111.020 121.327 111.294 122.277 C 111.417 122.705 113.764 121.538 116.509 119.686 C 124.023 114.615 126.802 112.957 135.000 108.661 C 139.125 106.499 142.725 104.374 143.000 103.938 C 143.275 103.503 140.350 104.730 136.500 106.665 "/></g>
<g fill="#B8944CFD" stroke="#B8944CFD">
<path d="M 237.113 166.000 C 236.410 167.321 236.081 171.539 235.635 184.947 C 235.299 195.051 235.394 197.360 235.947 192.500 C 236.729 185.632 237.636 165.017 237.113 166.000 "/></g>
<g fill="#D0D9E0FD" stroke="#D0D9E0FD">
<path d="M 436.221 406.587 C 435.608 407.732 433.511 409.756 431.560 411.085 C 429.610 412.413 428.011 413.878 428.007 414.341 C 428.003 414.804 429.575 417.022 431.500 419.271 C 433.425 421.520 435.000 423.792 435.000 424.320 C 435.000 424.848 433.763 428.198 432.250 431.763 L 429.500 438.246 432.750 432.151 C 434.538 428.799 436.000 425.433 436.000 424.669 C 436.000 423.906 434.436 421.306 432.524 418.891 L 429.048 414.500 433.569 410.634 C 436.055 408.508 437.920 406.259 437.712 405.637 C 437.505 405.014 436.834 405.442 436.221 406.587 "/></g>
<g fill="#C9AC71FD" stroke="#C9AC71FD">
<path d="M 179.069 202.250 C 180.656 204.112 187.929 214.071 195.498 224.750 C 196.376 225.988 197.592 227.000 198.202 227.000 C 198.832 227.000 198.626 226.245 197.726 225.250 C 196.855 224.288 196.110 223.163 196.071 222.750 C 196.032 222.338 196.000 222.293 196.000 222.650 C 196.000 223.008 194.578 221.320 192.840 218.900 C 184.747 207.631 178.750 200.000 177.987 200.000 C 177.527 200.000 178.014 201.013 179.069 202.250 "/></g>
<g fill="#D0D9E0FD" stroke="#D0D9E0FD">
<path d="M 100.000 418.908 C 100.000 419.483 102.357 421.817 105.238 424.094 C 108.119 426.371 111.130 429.194 111.930 430.367 C 112.730 431.540 113.669 432.725 114.017 433.000 C 114.365 433.275 115.708 435.407 117.002 437.739 C 118.297 440.070 119.534 441.799 119.752 441.582 C 120.307 441.026 117.161 435.102 114.339 431.389 C 111.278 427.362 100.000 417.545 100.000 418.908 "/></g>
<g fill="#D0D9E0FD" stroke="#D0D9E0FD">
<path d="M 158.449 393.356 L 149.500 402.713 158.744 393.767 L 167.989 384.821 172.811 388.660 C 175.463 390.772 177.758 392.336 177.911 392.136 C 178.267 391.669 169.010 384.000 168.090 384.000 C 167.710 384.000 163.372 388.210 158.449 393.356 "/></g>
<g fill="#C9AC71FD" stroke="#C9AC71FD">
<path d="M 273.714 152.828 C 271.047 155.678 265.887 164.654 262.500 172.334 C 260.850 176.075 260.350 177.643 261.390 175.818 C 262.429 173.993 263.779 172.169 264.390 171.765 C 265.000 171.361 265.134 171.024 264.686 171.015 C 263.974 171.002 267.652 163.332 269.009 162.000 C 270.035 160.994 274.979 153.055 275.236 152.003 C 275.381 151.407 274.696 151.778 273.714 152.828 "/></g>
<g fill="#D0D9E0FD" stroke="#D0D9E0FD">
<path d="M 379.663 131.555 C 394.232 147.090 394.336 147.190 390.155 141.716 C 386.315 136.689 370.356 120.000 369.389 120.000 C 369.079 120.000 373.703 125.200 379.663 131.555 "/></g>
<g fill="#C9AC71FD" stroke="#C9AC71FD">
<path d="M 332.466 288.693 C 329.773 292.802 329.089 293.579 321.750 300.857 C 318.038 304.539 315.000 307.977 315.000 308.497 C 315.000 309.017 317.956 306.530 321.568 302.971 C 328.460 296.181 335.580 287.246 334.755 286.422 C 334.489 286.155 333.459 287.177 332.466 288.693 "/></g>
<g fill="#C9AC71FD" stroke="#C9AC71FD">
<path d="M 201.140 216.312 C 204.088 219.233 208.975 225.066 212.000 229.273 C 215.025 233.481 217.845 236.825 218.267 236.706 C 219.985 236.219 198.808 211.000 196.682 211.000 C 196.186 211.000 198.192 213.390 201.140 216.312 "/></g>
<g fill="#D0D9E0FD" stroke="#D0D9E0FD">
<path d="M 270.575 484.500 C 272.779 491.795 273.171 498.785 271.697 504.537 C 269.383 513.561 269.371 513.810 271.442 509.500 C 274.030 504.116 274.175 491.000 271.702 486.000 C 270.750 484.075 270.243 483.400 270.575 484.500 "/></g>
<g fill="#D0D9E0FD" stroke="#D0D9E0FD">
<path d="M 205.000 84.599 C 199.225 85.365 193.600 86.445 192.500 86.998 C 190.828 87.840 190.992 87.923 193.500 87.505 C 195.150 87.231 201.670 86.297 207.989 85.431 C 214.308 84.564 219.671 83.663 219.906 83.428 C 220.574 82.759 216.382 83.089 205.000 84.599 "/></g>
<g fill="#C9AC71FD" stroke="#C9AC71FD">
<path d="M 220.179 203.500 C 220.846 205.150 221.715 206.950 222.110 207.500 C 222.506 208.050 224.015 211.649 225.464 215.499 C 226.912 219.348 228.526 222.926 229.049 223.449 C 230.471 224.871 230.216 223.669 227.997 218.493 C 226.895 215.922 226.247 213.410 226.556 212.910 C 226.865 212.409 226.615 212.000 226.000 212.000 C 225.385 212.000 225.160 211.550 225.500 211.000 C 225.840 210.450 225.672 210.000 225.126 210.000 C 224.189 210.000 223.179 207.766 222.470 204.126 C 222.296 203.232 222.119 202.924 222.077 203.441 C 222.034 203.959 221.318 203.509 220.484 202.441 C 219.089 200.656 219.065 200.741 220.179 203.500 "/></g>
<g fill="#D0D9E0FD" stroke="#D0D9E0FD">
<path d="M 30.115 290.289 C 29.939 294.566 32.019 311.902 33.001 314.338 C 34.198 317.307 34.134 316.405 32.054 301.000 C 31.051 293.575 30.179 288.755 30.115 290.289 "/></g>
<g fill="#D0D9E0FD" stroke="#D0D9E0FD">
<path d="M 32.641 242.203 C 31.133 250.496 29.564 267.789 30.399 266.917 C 30.994 266.294 34.110 239.777 33.643 239.309 C 33.421 239.088 32.970 240.390 32.641 242.203 "/></g>
<g fill="#C9AC71FD" stroke="#C9AC71FD">
<path d="M 345.523 236.393 C 347.328 237.713 347.365 238.357 346.224 248.569 C 344.861 260.769 345.249 263.600 346.875 253.315 C 348.917 240.398 348.424 235.000 345.202 235.000 C 343.910 235.000 343.969 235.257 345.523 236.393 "/></g>
<g fill="#D0D9E0FD" stroke="#D0D9E0FD">
<path d="M 224.000 362.893 C 221.774 363.511 221.370 364.404 220.313 371.043 C 219.660 375.145 219.154 379.850 219.189 381.500 C 219.225 383.150 219.984 380.039 220.877 374.586 L 222.500 364.672 226.000 363.412 C 229.691 362.084 228.258 361.712 224.000 362.893 "/></g>
<g fill="#D0D9E0FD" stroke="#D0D9E0FD">
<path d="M 273.500 591.854 C 264.814 595.512 264.502 595.755 264.556 598.822 C 264.586 600.570 264.699 600.883 264.806 599.517 C 265.012 596.878 270.308 593.591 278.500 591.016 C 282.398 589.790 285.425 587.966 283.450 588.032 C 282.928 588.049 278.450 589.769 273.500 591.854 "/></g>
<g fill="#D0D9E0FD" stroke="#D0D9E0FD">
<path d="M 282.250 555.124 C 278.813 558.218 276.009 561.368 276.019 562.124 C 276.029 562.881 277.492 565.663 279.269 568.306 C 282.141 572.578 281.740 571.399 277.885 564.236 C 276.771 562.166 277.173 561.437 282.583 555.736 L 288.500 549.500 282.250 555.124 "/></g>
<g fill="#D0D9E0FD" stroke="#D0D9E0FD">
<path d="M 224.432 470.806 C 220.151 473.910 215.568 480.042 214.569 484.000 C 214.165 485.604 214.756 485.034 216.219 482.410 C 219.511 476.508 221.981 473.754 226.427 471.027 C 228.587 469.702 229.906 468.469 229.359 468.286 C 228.811 468.104 226.594 469.237 224.432 470.806 "/></g>
<g fill="#D0D9E0FD" stroke="#D0D9E0FD">
<path d="M 340.661 454.000 C 340.983 455.925 341.992 459.525 342.904 462.000 L 344.563 466.500 350.781 466.467 C 356.286 466.437 356.375 466.408 351.559 466.217 C 348.566 466.098 345.754 465.446 345.309 464.768 C 344.864 464.090 343.504 460.603 342.288 457.018 C 341.071 453.433 340.339 452.075 340.661 454.000 "/></g>
<g fill="#D0D9E0FD" stroke="#D0D9E0FD">
<path d="M 335.165 430.398 L 330.829 436.146 333.265 439.823 C 334.604 441.845 336.660 445.075 337.833 447.000 C 339.006 448.925 339.966 450.050 339.967 449.500 C 339.967 448.463 336.853 443.102 333.667 438.656 C 331.841 436.107 331.848 436.079 335.499 431.299 C 337.515 428.659 339.240 426.084 339.332 425.575 C 339.425 425.066 337.549 427.236 335.165 430.398 "/></g>
<g fill="#C9AC71FD" stroke="#C9AC71FD">
<path d="M 189.002 167.750 C 189.003 168.163 192.603 171.344 197.002 174.821 C 201.401 178.297 205.000 181.597 205.000 182.154 C 205.000 182.711 205.487 183.004 206.082 182.806 C 206.677 182.608 204.540 180.075 201.332 177.178 C 189.400 166.402 188.997 166.094 189.002 167.750 "/></g>
<g fill="#D0D9E0FD" stroke="#D0D9E0FD">
<path d="M 180.000 393.852 C 180.000 394.455 181.350 395.647 183.000 396.500 C 184.650 397.353 186.000 398.414 186.000 398.857 C 186.000 399.300 187.100 400.251 188.445 400.971 C 190.519 402.080 191.425 402.026 194.403 400.613 C 196.335 399.696 198.206 398.475 198.562 397.900 C 198.918 397.324 197.312 397.821 194.993 399.004 L 190.776 401.155 186.638 397.910 C 184.362 396.125 181.938 394.235 181.250 393.710 C 180.429 393.083 180.000 393.132 180.000 393.852 "/></g>
<g fill="#D0D9E0FD" stroke="#D0D9E0FD">
<path d="M 416.726 242.390 C 415.840 248.354 415.893 258.879 416.820 261.206 C 417.194 262.144 417.489 257.194 417.476 250.206 C 417.458 241.033 417.250 238.860 416.726 242.390 "/></g>
<g fill="#C9AC71FD" stroke="#C9AC71FD">
<path d="M 290.797 250.145 C 288.761 251.780 286.848 253.091 286.547 253.059 C 286.246 253.027 286.225 253.000 286.500 253.000 C 286.775 253.000 285.200 254.800 283.000 257.000 C 280.800 259.200 278.523 261.000 277.941 261.000 C 277.359 261.000 277.177 261.477 277.537 262.060 C 277.924 262.686 280.511 260.932 283.846 257.783 C 286.956 254.847 290.806 251.439 292.403 250.209 C 293.999 248.978 295.124 247.792 294.903 247.572 C 294.681 247.352 292.834 248.510 290.797 250.145 "/></g>
<g fill="#C9AC71FD" stroke="#C9AC71FD">
<path d="M 210.257 188.284 C 212.040 190.640 214.625 194.236 216.000 196.276 C 217.375 198.316 218.866 199.866 219.314 199.721 C 219.762 199.576 217.865 196.429 215.098 192.729 C 212.332 189.028 210.390 185.993 210.784 185.985 C 211.707 185.965 208.741 184.036 207.757 184.015 C 207.348 184.007 208.473 185.928 210.257 188.284 "/></g>
<g fill="#C9AC71FD" stroke="#C9AC71FD">
<path d="M 295.500 126.752 C 291.650 130.871 288.050 135.087 287.500 136.119 C 286.950 137.152 288.186 136.197 290.247 133.998 C 292.308 131.799 294.521 130.000 295.164 130.000 C 295.807 130.000 296.023 129.690 295.644 129.311 C 295.265 128.932 296.850 126.691 299.165 124.332 C 301.481 121.972 303.178 119.866 302.938 119.652 C 302.697 119.437 299.350 122.632 295.500 126.752 "/></g>
<g fill="#D0D9E0FD" stroke="#D0D9E0FD">
<path d="M 258.116 470.525 C 261.223 472.446 265.021 475.896 266.616 478.249 C 268.202 480.587 269.361 481.685 269.192 480.689 C 268.727 477.954 262.127 471.106 257.858 468.928 C 251.849 465.862 251.990 466.739 258.116 470.525 "/></g>
<g fill="#D0D9E0FD" stroke="#D0D9E0FD">
<path d="M 290.055 449.573 C 293.050 452.914 297.188 458.529 299.250 462.051 C 301.313 465.573 303.000 468.041 303.000 467.535 C 303.000 465.163 294.601 452.974 289.882 448.500 L 284.609 443.500 290.055 449.573 "/></g>
<g fill="#D0D9E0FD" stroke="#D0D9E0FD">
<path d="M 414.390 193.500 C 414.634 195.150 415.376 200.233 416.038 204.795 C 416.701 209.357 417.460 212.874 417.724 212.609 C 418.422 211.912 416.098 195.360 414.933 192.729 C 414.056 190.748 413.996 190.833 414.390 193.500 "/></g>
<g fill="#D0D9E0FD" stroke="#D0D9E0FD">
<path d="M 220.339 606.750 C 220.666 608.813 221.237 613.100 221.608 616.278 C 221.979 619.456 222.717 622.325 223.248 622.653 C 223.828 623.011 223.993 622.101 223.662 620.375 C 223.358 618.794 222.594 614.238 221.964 610.250 C 221.335 606.263 220.577 603.000 220.282 603.000 C 219.986 603.000 220.012 604.688 220.339 606.750 "/></g>
<g fill="#C9AC71FD" stroke="#C9AC71FD">
<path d="M 310.294 239.935 C 301.043 243.196 300.000 243.718 300.000 245.089 C 300.000 245.623 301.913 245.069 304.250 243.859 C 310.620 240.560 311.366 240.250 316.118 238.938 C 318.528 238.273 320.050 237.574 319.500 237.385 C 318.950 237.196 314.807 238.344 310.294 239.935 "/></g>
<g fill="#C9AC71FD" stroke="#C9AC71FD">
<path d="M 179.000 196.943 C 179.000 197.524 179.338 198.000 179.750 198.000 C 180.163 198.001 183.130 200.429 186.345 203.398 C 189.559 206.366 192.372 208.841 192.595 208.897 C 192.818 208.954 193.462 209.113 194.027 209.250 C 195.061 209.502 184.254 199.622 180.838 197.193 C 179.705 196.388 179.000 196.292 179.000 196.943 "/></g>
<g fill="#FDF4CDFD" stroke="#FDF4CDFD">
<path d="M 313.091 49.067 C 305.694 53.098 300.012 57.000 301.536 57.000 C 301.980 57.000 303.066 56.346 303.949 55.546 C 304.833 54.746 309.565 52.046 314.465 49.546 C 319.365 47.046 322.727 45.006 321.937 45.014 C 321.147 45.022 317.166 46.845 313.091 49.067 "/></g>
<g fill="#D0D9E0FD" stroke="#D0D9E0FD">
<path d="M 234.345 465.765 C 233.710 466.169 237.524 466.474 242.819 466.443 C 248.115 466.412 251.635 466.074 250.642 465.693 C 248.250 464.775 235.815 464.830 234.345 465.765 "/></g>
<g fill="#D0D9E0FD" stroke="#D0D9E0FD">
<path d="M 402.603 162.769 C 405.184 167.867 407.499 171.834 407.749 171.585 C 408.344 170.989 401.241 156.938 399.365 155.000 C 398.566 154.175 400.023 157.671 402.603 162.769 "/></g>
<g fill="#D0D9E0FD" stroke="#D0D9E0FD">
<path d="M 265.579 380.000 C 266.953 391.174 267.027 391.321 271.250 391.291 C 271.938 391.287 271.508 390.947 270.296 390.537 C 268.592 389.960 267.949 388.735 267.467 385.145 C 267.124 382.590 266.434 379.375 265.934 378.000 C 265.250 376.117 265.162 376.611 265.579 380.000 "/></g>
<g fill="#C9AC71FD" stroke="#C9AC71FD">
<path d="M 138.639 204.250 C 139.056 204.938 140.910 207.617 142.760 210.206 C 144.610 212.794 146.096 215.156 146.062 215.456 C 146.028 215.755 146.000 215.709 146.000 215.354 C 146.000 214.999 147.104 215.899 148.452 217.354 C 149.801 218.809 151.208 220.000 151.580 220.000 C 151.951 220.000 150.449 218.041 148.241 215.646 C 146.034 213.251 143.164 209.429 141.864 207.153 C 140.564 204.878 139.136 203.012 138.691 203.008 C 138.246 203.003 138.223 203.563 138.639 204.250 "/></g>
<g fill="#C9AC71FD" stroke="#C9AC71FD">
<path d="M 352.587 146.439 C 350.526 149.430 347.993 152.918 346.957 154.189 C 345.763 155.654 345.606 156.203 346.529 155.690 C 348.328 154.689 357.413 142.080 356.787 141.454 C 356.537 141.204 354.647 143.447 352.587 146.439 "/></g>
<g fill="#D0D9E0FD" stroke="#D0D9E0FD">
<path d="M 443.500 362.934 C 441.850 363.329 439.492 364.194 438.260 364.856 C 435.905 366.122 432.445 371.778 433.426 372.760 C 433.742 373.075 434.000 372.843 434.000 372.243 C 434.000 369.578 439.184 365.189 443.736 364.001 C 448.797 362.680 448.584 361.717 443.500 362.934 "/></g>
<g fill="#D0D9E0FD" stroke="#D0D9E0FD">
<path d="M 38.362 219.104 C 36.900 222.313 34.671 233.004 35.327 233.660 C 35.602 233.936 36.645 230.637 37.644 226.331 C 39.770 217.161 39.916 215.694 38.362 219.104 "/></g>
<g fill="#B8944CFD" stroke="#B8944CFD">
<path d="M 257.362 186.104 C 255.947 189.211 253.662 199.995 254.286 200.620 C 254.717 201.050 258.500 186.627 258.500 184.554 C 258.500 184.033 257.988 184.731 257.362 186.104 "/></g>
<g fill="#B8944CFD" stroke="#B8944CFD">
<path d="M 286.000 154.417 C 286.000 155.288 285.655 156.000 285.234 156.000 C 284.343 156.000 277.623 166.956 278.175 167.508 C 278.378 167.712 279.620 166.218 280.933 164.189 C 282.247 162.160 284.378 158.926 285.668 157.002 C 286.958 155.079 287.561 153.354 287.007 153.169 C 286.453 152.984 286.000 153.546 286.000 154.417 "/></g>
<g fill="#C9AC71FD" stroke="#C9AC71FD">
<path d="M 311.379 184.356 C 309.663 185.535 305.957 187.625 303.145 189.000 C 300.332 190.375 298.024 191.841 298.016 192.259 C 298.007 192.676 300.400 191.663 303.332 190.008 C 306.265 188.352 308.965 187.299 309.332 187.666 C 309.700 188.033 310.000 187.782 310.000 187.108 C 310.000 186.434 310.520 186.203 311.155 186.595 C 311.842 187.021 312.039 186.872 311.640 186.227 C 311.271 185.629 311.898 184.850 313.041 184.487 C 314.179 184.126 314.973 183.466 314.805 183.021 C 314.637 182.575 313.096 183.176 311.379 184.356 "/></g>
<g fill="#C9AC71FD" stroke="#C9AC71FD">
<path d="M 137.500 151.067 L 129.500 151.633 137.000 151.830 C 141.125 151.939 145.625 152.297 147.000 152.628 C 149.380 153.199 149.404 153.163 147.500 151.864 C 146.028 150.860 143.386 150.650 137.500 151.067 "/></g>
<g fill="#C9AC71FD" stroke="#C9AC71FD">
<path d="M 240.132 149.171 C 238.922 155.354 238.190 163.941 239.208 160.000 C 240.779 153.921 242.236 144.903 241.729 144.396 C 241.424 144.091 240.706 146.240 240.132 149.171 "/></g>
<g fill="#D0D9E0FD" stroke="#D0D9E0FD">
<path d="M 252.083 429.392 C 252.313 429.607 255.200 430.473 258.500 431.317 C 261.800 432.160 265.400 433.175 266.500 433.572 C 267.920 434.085 268.210 433.977 267.500 433.199 C 266.950 432.596 263.818 431.405 260.540 430.552 C 254.816 429.062 251.205 428.566 252.083 429.392 "/></g>
<g fill="#D0D9E0FD" stroke="#D0D9E0FD">
<path d="M 180.000 89.676 C 176.425 90.513 173.050 91.654 172.500 92.211 C 171.827 92.893 172.154 93.039 173.500 92.656 C 174.600 92.343 178.650 91.298 182.500 90.333 C 186.350 89.368 188.825 88.483 188.000 88.367 C 187.175 88.250 183.575 88.839 180.000 89.676 "/></g>
<g fill="#B8944CFD" stroke="#B8944CFD">
<path d="M 204.839 235.053 C 212.508 246.621 213.441 247.885 212.002 244.757 C 210.049 240.509 205.213 233.250 203.724 232.329 C 203.081 231.932 203.583 233.158 204.839 235.053 "/></g>
<g fill="#C9AC71FD" stroke="#C9AC71FD">
<path d="M 129.720 183.250 C 130.606 186.138 131.353 189.302 131.380 190.282 C 131.407 191.262 131.970 191.937 132.632 191.782 C 133.533 191.571 133.456 190.497 132.323 187.500 C 131.491 185.300 130.578 182.263 130.292 180.750 C 130.007 179.238 129.398 178.000 128.940 178.000 C 128.482 178.000 128.833 180.363 129.720 183.250 "/></g>
<g fill="#B8944CFD" stroke="#B8944CFD">
<path d="M 196.433 172.575 C 199.522 175.091 202.601 176.927 203.275 176.654 C 204.077 176.329 203.978 176.131 202.987 176.079 C 202.155 176.036 200.632 174.877 199.601 173.505 C 198.040 171.427 192.845 168.000 191.255 168.000 C 191.014 168.000 193.344 170.059 196.433 172.575 "/></g>
<g fill="#C9AC71FD" stroke="#C9AC71FD">
<path d="M 336.229 166.235 L 330.957 171.500 336.229 166.235 L 341.500 160.970 336.229 166.235 "/></g>
<g fill="#C9AC71FD" stroke="#C9AC71FD">
<path d="M 250.233 114.727 C 246.657 122.739 246.706 124.960 250.294 117.500 C 252.146 113.650 253.369 110.377 253.012 110.227 C 252.655 110.077 251.405 112.102 250.233 114.727 "/></g>
<g fill="#D0D9E0FD" stroke="#D0D9E0FD">
<path d="M 300.302 531.250 C 299.094 533.588 297.137 536.963 295.954 538.750 C 294.771 540.538 294.185 541.983 294.652 541.963 C 295.756 541.914 302.047 531.064 302.303 528.767 C 302.411 527.795 301.511 528.913 300.302 531.250 "/></g>
<g fill="#D0D9E0FD" stroke="#D0D9E0FD">
<path d="M 416.500 505.748 C 411.927 510.509 411.422 511.284 414.375 509.007 C 418.520 505.812 423.158 500.823 422.749 500.000 C 422.612 499.725 419.800 502.311 416.500 505.748 "/></g>
<g fill="#D0D9E0FD" stroke="#D0D9E0FD">
<path d="M 448.163 315.500 C 448.464 316.050 450.688 319.743 453.105 323.706 L 457.500 330.912 454.000 323.901 C 452.075 320.045 449.851 316.353 449.058 315.695 C 448.265 315.038 447.862 314.950 448.163 315.500 "/></g>
<g fill="#C9AC71FD" stroke="#C9AC71FD">
<path d="M 287.750 324.238 C 284.038 325.904 281.000 327.644 281.000 328.106 C 281.000 328.567 284.188 327.345 288.084 325.390 C 291.980 323.434 295.018 321.694 294.834 321.521 C 294.650 321.349 291.463 322.571 287.750 324.238 "/></g>
<g fill="#C9AC71FD" stroke="#C9AC71FD">
<path d="M 263.221 198.026 C 261.830 203.507 262.749 204.703 267.207 203.214 L 270.500 202.114 266.803 202.658 L 263.105 203.203 264.116 199.542 C 264.672 197.528 264.953 195.359 264.741 194.722 C 264.528 194.084 263.844 195.571 263.221 198.026 "/></g>
<g fill="#C9AC71FD" stroke="#C9AC71FD">
<path d="M 273.028 177.932 C 272.345 179.580 271.497 180.892 271.143 180.846 C 270.790 180.800 270.624 180.816 270.776 180.882 C 270.927 180.947 270.353 182.350 269.500 184.000 C 268.647 185.650 268.357 187.000 268.857 187.000 C 269.912 187.000 275.439 176.105 274.739 175.405 C 274.480 175.147 273.711 176.284 273.028 177.932 "/></g>
<g fill="#D0D9E0FD" stroke="#D0D9E0FD">
<path d="M 256.000 83.895 C 262.277 85.446 267.000 85.894 267.000 84.937 C 267.000 84.422 265.938 84.000 264.640 84.000 C 263.341 84.000 260.079 83.782 257.390 83.515 C 253.148 83.095 252.964 83.145 256.000 83.895 "/></g>
<g fill="#B8944CFD" stroke="#B8944CFD">
<path d="M 305.529 240.563 C 302.245 241.926 299.157 243.443 298.666 243.934 C 298.176 244.424 301.537 243.309 306.137 241.455 C 310.737 239.601 313.825 238.084 313.000 238.084 C 312.175 238.084 308.813 239.200 305.529 240.563 "/></g>
<g fill="#B8944CFD" stroke="#B8944CFD">
<path d="M 268.245 163.912 C 265.905 167.439 264.180 170.514 264.412 170.745 C 264.904 171.237 271.915 160.491 272.264 158.709 C 272.394 158.044 270.585 160.385 268.245 163.912 "/></g>
<g fill="#D0D9E0FD" stroke="#D0D9E0FD">
<path d="M 306.448 513.632 C 306.091 515.209 305.302 518.300 304.693 520.500 C 303.218 525.837 303.222 527.193 304.703 523.500 C 306.500 519.021 308.203 511.870 307.614 511.281 C 307.330 510.997 306.805 512.055 306.448 513.632 "/></g>
<g fill="#D0D9E0FD" stroke="#D0D9E0FD">
<path d="M 211.760 494.000 C 211.354 495.925 211.440 498.850 211.952 500.500 C 212.714 502.953 212.849 502.314 212.692 497.000 C 212.528 491.443 212.393 491.008 211.760 494.000 "/></g>
<g fill="#D0D9E0FD" stroke="#D0D9E0FD">
<path d="M 305.142 475.209 C 307.020 481.243 308.000 483.348 308.000 481.348 C 308.000 479.344 304.919 470.068 304.081 469.550 C 303.604 469.255 304.082 471.802 305.142 475.209 "/></g>
<g fill="#D0D9E0FD" stroke="#D0D9E0FD">
<path d="M 224.665 430.507 C 222.006 431.238 219.564 432.103 219.238 432.428 C 218.481 433.186 224.314 432.057 229.500 430.443 C 234.864 428.773 230.779 428.827 224.665 430.507 "/></g>
<g fill="#D0D9E0FD" stroke="#D0D9E0FD">
<path d="M 434.030 385.294 C 433.970 386.864 437.270 399.063 437.651 398.682 C 438.188 398.145 435.966 387.848 434.914 386.000 C 434.445 385.175 434.047 384.858 434.030 385.294 "/></g>
<g fill="#C9AC71FD" stroke="#C9AC71FD">
<path d="M 263.589 92.654 C 262.165 94.750 260.944 96.135 260.875 95.732 C 260.806 95.329 260.694 95.413 260.625 95.917 C 260.556 96.421 260.163 97.171 259.750 97.583 C 259.338 97.996 259.000 98.740 259.000 99.238 C 259.000 100.355 260.633 98.660 264.351 93.684 C 265.919 91.586 266.972 89.638 266.690 89.357 C 266.408 89.075 265.013 90.559 263.589 92.654 "/></g>
<g fill="#D0D9E0FD" stroke="#D0D9E0FD">
<path d="M 266.146 516.654 C 264.851 518.370 262.703 520.356 261.373 521.068 C 260.042 521.780 259.084 522.752 259.243 523.228 C 259.671 524.512 267.889 517.176 268.218 515.216 C 268.380 514.250 267.497 514.862 266.146 516.654 "/></g>
<g fill="#D0D9E0FD" stroke="#D0D9E0FD">
<path d="M 458.546 333.750 C 458.964 334.713 460.122 337.750 461.120 340.500 C 462.239 343.583 462.947 344.633 462.967 343.239 C 463.000 341.007 459.246 332.000 458.283 332.000 C 458.010 332.000 458.128 332.788 458.546 333.750 "/></g>
<g fill="#D0D9E0FD" stroke="#D0D9E0FD">
<path d="M 42.665 207.422 C 41.655 209.579 40.755 212.504 40.665 213.922 C 40.574 215.340 41.400 213.575 42.500 210.000 C 44.272 204.243 44.290 203.948 42.665 207.422 "/></g>
<g fill="#B8944CFD" stroke="#B8944CFD">
<path d="M 237.548 157.296 C 237.114 160.483 237.004 163.337 237.304 163.637 C 238.054 164.387 239.293 155.678 238.765 153.367 C 238.530 152.340 237.983 154.108 237.548 157.296 "/></g>
<g fill="#C9AC71FD" stroke="#C9AC71FD">
<path d="M 172.500 159.960 C 177.130 162.150 179.000 162.432 179.000 160.941 C 179.000 160.359 178.586 160.138 178.081 160.450 C 177.575 160.763 176.562 160.452 175.831 159.759 C 175.099 159.067 173.150 158.403 171.500 158.284 C 168.612 158.076 168.650 158.139 172.500 159.960 "/></g>
<g fill="#C9AC71FD" stroke="#C9AC71FD">
<path d="M 288.136 151.916 C 287.417 152.360 286.868 153.011 286.915 153.362 C 287.190 155.420 286.867 156.036 285.845 155.405 C 285.156 154.979 284.961 155.129 285.362 155.776 C 285.731 156.373 285.575 157.144 285.016 157.490 C 284.457 157.835 284.009 158.879 284.019 159.809 C 284.029 160.739 285.409 159.317 287.084 156.648 C 290.191 151.701 290.462 150.478 288.136 151.916 "/></g>
<g fill="#C9AC71FD" stroke="#C9AC71FD">
<path d="M 126.162 157.250 L 126.323 164.500 126.912 157.249 C 127.235 153.260 127.163 149.998 126.750 149.999 C 126.338 149.999 126.073 153.263 126.162 157.250 "/></g>
<g fill="#D0D9E0FD" stroke="#D0D9E0FD">
<path d="M 35.000 322.652 C 35.000 324.368 38.118 334.215 38.531 333.802 C 39.006 333.327 36.366 323.032 35.563 322.230 C 35.253 321.920 35.000 322.110 35.000 322.652 "/></g>
<g fill="#B8944CFD" stroke="#B8944CFD">
<path d="M 265.500 203.963 C 263.729 204.691 263.691 204.863 265.167 205.468 C 266.084 205.843 268.109 205.460 269.667 204.615 L 272.500 203.080 270.000 203.110 C 268.625 203.127 266.600 203.511 265.500 203.963 "/></g>
<g fill="#B8944CFD" stroke="#B8944CFD">
<path d="M 255.422 103.227 C 253.518 105.476 248.809 114.142 249.251 114.585 C 249.486 114.820 251.214 112.074 253.089 108.484 C 254.965 104.893 256.015 102.528 255.422 103.227 "/></g>
<g fill="#C9AC71FD" stroke="#C9AC71FD">
<path d="M 226.596 252.500 C 226.937 253.600 227.660 256.075 228.201 258.000 C 228.743 259.925 229.645 261.950 230.205 262.500 C 231.561 263.830 230.373 259.750 227.877 254.500 C 226.831 252.300 226.254 251.400 226.596 252.500 "/></g>
<g fill="#C9AC71FD" stroke="#C9AC71FD">
<path d="M 153.000 222.000 C 153.825 222.533 154.128 222.976 153.673 222.985 C 153.219 222.993 154.231 224.165 155.923 225.589 C 157.615 227.013 159.000 227.666 159.000 227.041 C 159.000 225.713 153.965 221.071 152.500 221.047 C 151.950 221.038 152.175 221.467 153.000 222.000 "/></g>
<g fill="#C9AC71FD" stroke="#C9AC71FD">
<path d="M 253.834 194.500 C 253.468 195.600 252.922 198.750 252.620 201.500 C 252.196 205.378 252.277 205.855 252.983 203.628 C 253.483 202.048 254.029 198.898 254.196 196.628 C 254.366 194.324 254.206 193.384 253.834 194.500 "/></g>
<g fill="#D0D9E0FD" stroke="#D0D9E0FD">
<path d="M 409.575 178.250 C 409.966 179.488 410.895 182.075 411.640 184.000 L 412.994 187.500 412.370 184.000 C 411.605 179.713 410.253 176.000 409.457 176.000 C 409.132 176.000 409.185 177.013 409.575 178.250 "/></g>
<g fill="#D0D9E0FD" stroke="#D0D9E0FD">
<path d="M 152.731 99.137 C 148.636 100.306 144.717 102.051 145.170 102.504 C 145.679 103.013 155.175 99.567 155.046 98.921 C 155.000 98.689 153.958 98.787 152.731 99.137 "/></g>
<g fill="#D0D9E0FD" stroke="#D0D9E0FD">
<path d="M 164.058 94.596 C 161.615 95.360 159.161 96.439 158.605 96.995 C 158.049 97.551 160.491 97.027 164.033 95.832 C 171.128 93.435 171.150 92.381 164.058 94.596 "/></g>
<g fill="#B8944CFD" stroke="#B8944CFD">
<path d="M 277.500 330.435 C 272.174 332.999 272.052 333.949 277.349 331.607 C 279.082 330.841 281.400 329.889 282.500 329.491 C 283.600 329.093 284.050 328.601 283.500 328.397 C 282.950 328.194 280.250 329.111 277.500 330.435 "/></g>
<g fill="#B8944CFD" stroke="#B8944CFD">
<path d="M 257.321 311.487 C 256.672 314.230 256.334 316.668 256.571 316.904 C 257.440 317.773 257.857 316.367 258.174 311.492 L 258.500 306.500 257.321 311.487 "/></g>
<g fill="#B8944CFD" stroke="#B8944CFD">
<path d="M 220.598 201.250 C 221.424 203.038 222.626 205.738 223.269 207.250 C 223.912 208.763 224.783 210.000 225.204 210.000 C 225.625 210.000 224.598 207.300 222.921 204.000 C 219.711 197.685 218.032 195.696 220.598 201.250 "/></g>
<g fill="#B8944CFD" stroke="#B8944CFD">
<path d="M 261.750 198.817 C 260.788 201.140 260.018 203.594 260.040 204.270 C 260.110 206.420 262.851 200.503 263.182 197.487 C 263.449 195.062 263.217 195.277 261.750 198.817 "/></g>
<g fill="#D0D9E0FD" stroke="#D0D9E0FD">
<path d="M 261.500 617.000 C 261.112 619.820 261.020 622.353 261.295 622.628 C 261.570 622.903 262.112 620.820 262.500 618.000 C 262.888 615.180 262.980 612.647 262.705 612.372 C 262.430 612.097 261.888 614.180 261.500 617.000 "/></g>
<g fill="#D0D9E0FD" stroke="#D0D9E0FD">
<path d="M 182.834 467.000 C 181.957 468.925 180.960 471.625 180.618 473.000 C 180.276 474.375 180.876 473.594 181.951 471.265 C 183.026 468.935 184.023 466.235 184.167 465.265 C 184.311 464.294 183.711 465.075 182.834 467.000 "/></g>
<g fill="#D0D9E0FD" stroke="#D0D9E0FD">
<path d="M 276.386 393.816 C 276.982 394.779 282.267 396.471 284.500 396.412 C 285.600 396.383 281.864 394.693 278.125 393.526 C 276.584 393.046 275.973 393.147 276.386 393.816 "/></g>
<g fill="#B8944CFD" stroke="#B8944CFD">
<path d="M 134.000 197.373 C 134.000 198.699 137.968 205.862 139.085 206.553 C 139.698 206.931 138.982 205.049 137.494 202.370 C 134.565 197.096 134.000 196.288 134.000 197.373 "/></g>
<g fill="#C9AC71FD" stroke="#C9AC71FD">
<path d="M 134.000 194.500 C 134.685 195.325 134.971 196.000 134.637 196.000 C 134.303 196.000 134.921 197.463 136.011 199.250 C 138.413 203.190 138.547 202.407 136.391 197.020 C 135.507 194.809 134.327 193.000 133.769 193.000 C 133.186 193.000 133.285 193.638 134.000 194.500 "/></g>
<g fill="#C9AC71FD" stroke="#C9AC71FD">
<path d="M 180.673 163.063 C 182.301 165.057 188.000 168.306 188.000 167.241 C 188.000 166.761 186.088 165.301 183.750 163.997 C 181.413 162.693 180.028 162.273 180.673 163.063 "/></g>
<g fill="#C9AC71FD" stroke="#C9AC71FD">
<path d="M 363.000 129.012 C 363.000 129.661 362.051 131.524 360.891 133.153 C 359.731 134.782 359.012 136.345 359.293 136.626 C 359.574 136.908 360.965 135.194 362.383 132.819 C 363.801 130.444 364.520 128.350 363.980 128.167 C 363.441 127.983 363.000 128.364 363.000 129.012 "/></g>
<g fill="#FDF4CDFD" stroke="#FDF4CDFD">
<path d="M 272.106 80.392 C 269.848 82.693 268.000 84.982 268.000 85.479 C 268.000 86.358 276.139 77.608 276.188 76.676 C 276.201 76.419 274.364 78.091 272.106 80.392 "/></g>
<g fill="#D0D9E0FD" stroke="#D0D9E0FD">
<path d="M 145.071 529.628 C 144.970 531.235 148.024 538.309 148.579 537.754 C 148.834 537.500 148.164 535.313 147.092 532.896 C 146.019 530.478 145.109 529.008 145.071 529.628 "/></g>
<g fill="#D0D9E0FD" stroke="#D0D9E0FD">
<path d="M 402.188 514.779 C 399.816 515.565 398.098 516.431 398.370 516.704 C 399.019 517.352 405.992 515.046 406.279 514.088 C 406.401 513.682 404.559 513.993 402.188 514.779 "/></g>
<g fill="#D0D9E0FD" stroke="#D0D9E0FD">
<path d="M 48.495 193.833 C 47.371 194.950 44.942 201.275 45.445 201.778 C 45.704 202.038 46.652 200.410 47.552 198.162 C 49.329 193.719 49.528 192.808 48.495 193.833 "/></g>
<g fill="#B8944CFD" stroke="#B8944CFD">
<path d="M 291.164 248.426 C 288.779 250.117 287.204 251.499 287.664 251.498 C 288.908 251.494 296.011 246.592 295.737 245.926 C 295.606 245.611 293.549 246.736 291.164 248.426 "/></g>
<g fill="#B8944CFD" stroke="#B8944CFD">
<path d="M 298.750 124.766 C 297.238 126.330 296.000 128.001 296.000 128.479 C 296.000 129.776 300.949 124.881 301.245 123.292 C 301.385 122.539 300.263 123.202 298.750 124.766 "/></g>
<g fill="#C9AC71FD" stroke="#C9AC71FD">
<path d="M 268.000 333.000 C 265.525 334.039 263.950 334.907 264.500 334.929 C 265.875 334.985 272.806 332.528 273.648 331.685 C 274.799 330.535 272.726 331.017 268.000 333.000 "/></g>
<g fill="#C9AC71FD" stroke="#C9AC71FD">
<path d="M 307.359 312.973 C 305.632 313.999 303.889 315.371 303.486 316.023 C 303.083 316.674 303.858 316.484 305.207 315.600 C 306.556 314.716 307.883 314.216 308.156 314.489 C 308.429 314.762 309.068 314.113 309.576 313.047 C 310.485 311.140 310.448 311.139 307.359 312.973 "/></g>
<g fill="#C9AC71FD" stroke="#C9AC71FD">
<path d="M 340.816 273.000 C 339.593 275.567 339.472 276.575 340.360 276.782 C 341.026 276.937 341.634 276.262 341.711 275.282 C 341.788 274.302 341.993 272.600 342.167 271.500 C 342.341 270.400 341.733 271.075 340.816 273.000 "/></g>
<g fill="#C9AC71FD" stroke="#C9AC71FD">
<path d="M 231.535 230.252 C 231.122 231.216 231.170 233.241 231.642 234.752 C 232.385 237.130 232.486 236.895 232.393 233.000 C 232.323 230.032 232.031 229.097 231.535 230.252 "/></g>
<g fill="#C9AC71FD" stroke="#C9AC71FD">
<path d="M 280.500 198.472 C 278.300 199.197 277.400 199.803 278.500 199.819 C 279.600 199.835 282.075 199.241 284.000 198.500 C 288.505 196.765 285.746 196.743 280.500 198.472 "/></g>
<g fill="#C9AC71FD" stroke="#C9AC71FD">
<path d="M 255.764 187.500 C 254.846 189.975 254.524 192.000 255.048 192.000 C 255.572 192.000 256.000 191.303 256.000 190.450 C 256.000 189.598 256.687 187.573 257.526 185.950 C 258.365 184.328 258.687 183.000 258.241 183.000 C 257.796 183.000 256.681 185.025 255.764 187.500 "/></g>
<g fill="#C9AC71FD" stroke="#C9AC71FD">
<path d="M 281.048 164.295 C 280.290 165.508 279.778 166.707 279.909 166.961 C 280.041 167.214 279.327 167.745 278.324 168.141 C 276.682 168.788 276.672 168.866 278.224 168.930 C 279.184 168.969 280.658 167.628 281.548 165.907 C 283.422 162.283 283.051 161.087 281.048 164.295 "/></g>
<g fill="#C9AC71FD" stroke="#C9AC71FD">
<path d="M 256.337 101.670 C 256.705 102.039 256.320 103.389 255.480 104.670 C 254.641 105.952 254.403 107.000 254.951 107.000 C 255.500 107.000 256.647 105.650 257.500 104.000 C 258.929 101.237 258.917 101.000 257.359 101.000 C 256.428 101.000 255.968 101.302 256.337 101.670 "/></g>
<g fill="#FDF4CDFD" stroke="#FDF4CDFD">
<path d="M 367.000 32.009 C 365.976 32.676 367.087 32.785 370.500 32.352 C 373.250 32.004 375.688 31.557 375.917 31.359 C 376.910 30.503 368.354 31.126 367.000 32.009 "/></g>
<g fill="#D0D9E0FD" stroke="#D0D9E0FD">
<path d="M 215.500 594.511 C 216.600 595.292 218.107 596.456 218.849 597.097 C 219.920 598.024 220.126 597.891 219.849 596.454 C 219.651 595.429 218.199 594.307 216.500 593.867 C 213.714 593.145 213.642 593.191 215.500 594.511 "/></g>
<g fill="#D0D9E0FD" stroke="#D0D9E0FD">
<path d="M 426.254 442.110 C 425.019 443.974 424.154 445.943 424.332 446.484 C 424.510 447.025 425.521 445.500 426.578 443.094 L 428.500 438.720 426.254 442.110 "/></g>
<g fill="#D0D9E0FD" stroke="#D0D9E0FD">
<path d="M 272.500 436.491 C 274.700 437.826 276.392 438.501 276.260 437.990 C 276.008 437.014 270.670 433.978 269.300 434.031 C 268.860 434.048 270.300 435.155 272.500 436.491 "/></g>
<g fill="#D0D9E0FD" stroke="#D0D9E0FD">
<path d="M 203.500 395.043 C 201.300 396.137 200.400 396.743 201.500 396.388 C 202.600 396.033 204.519 395.522 205.765 395.252 C 207.010 394.982 208.274 394.365 208.574 393.881 C 209.417 392.516 207.864 392.871 203.500 395.043 "/></g>
<g fill="#D0D9E0FD" stroke="#D0D9E0FD">
<path d="M 453.500 360.070 C 448.919 362.110 449.717 362.594 454.694 360.794 C 456.528 360.130 457.910 359.295 457.765 358.938 C 457.619 358.581 455.700 359.090 453.500 360.070 "/></g>
<g fill="#FDF4CDFD" stroke="#FDF4CDFD">
<path d="M 380.634 76.886 C 380.249 79.295 380.145 81.478 380.402 81.736 C 381.074 82.407 382.288 75.363 381.769 73.806 C 381.530 73.090 381.020 74.476 380.634 76.886 "/></g>
<g fill="#FDF4CDFD" stroke="#FDF4CDFD">
<path d="M 351.000 34.721 C 349.625 34.968 348.050 35.613 347.500 36.155 C 346.459 37.182 350.616 36.445 354.500 34.915 C 356.637 34.073 355.090 33.987 351.000 34.721 "/></g>
<g fill="#D0D9E0FD" stroke="#D0D9E0FD">
<path d="M 262.574 366.750 C 263.496 369.333 263.926 369.825 263.956 368.332 C 264.010 365.649 263.044 363.000 262.011 363.000 C 261.585 363.000 261.838 364.688 262.574 366.750 "/></g>
<g fill="#B8944CFD" stroke="#B8944CFD">
<path d="M 281.822 257.000 L 278.373 260.500 281.822 257.000 L 285.271 253.500 281.822 257.000 "/></g>
<g fill="#B8944CFD" stroke="#B8944CFD">
<path d="M 187.500 205.498 L 190.500 207.934 188.636 205.467 C 187.611 204.110 186.261 203.014 185.636 203.032 C 185.011 203.049 185.850 204.159 187.500 205.498 "/></g>
<g fill="#C9AC71FD" stroke="#C9AC71FD">
<path d="M 270.241 272.512 C 268.998 274.431 268.323 275.981 268.741 275.958 C 269.709 275.904 274.148 268.996 273.204 269.012 C 272.817 269.019 271.483 270.594 270.241 272.512 "/></g>
<g fill="#C9AC71FD" stroke="#C9AC71FD">
<path d="M 231.614 267.000 C 231.942 268.925 232.613 270.928 233.105 271.450 C 234.367 272.790 234.124 271.184 232.433 267.000 L 231.018 263.500 231.614 267.000 "/></g>
<g fill="#C9AC71FD" stroke="#C9AC71FD">
<path d="M 275.374 263.689 C 275.742 264.342 275.249 265.321 274.279 265.864 C 273.310 266.406 272.861 267.194 273.282 267.615 C 273.703 268.036 274.805 267.623 275.731 266.698 C 277.140 265.288 277.194 264.810 276.060 263.757 C 275.140 262.903 274.921 262.881 275.374 263.689 "/></g>
<g fill="#C9AC71FD" stroke="#C9AC71FD">
<path d="M 166.157 233.266 C 167.619 234.623 169.309 235.427 169.913 235.054 C 170.545 234.663 169.419 233.618 167.255 232.587 L 163.500 230.799 166.157 233.266 "/></g>
<g fill="#C9AC71FD" stroke="#C9AC71FD">
<path d="M 127.100 170.691 C 127.045 172.446 127.450 174.160 128.000 174.500 C 129.150 175.211 129.150 173.591 128.000 170.000 C 127.235 167.613 127.195 167.644 127.100 170.691 "/></g>
<g fill="#C9AC71FD" stroke="#C9AC71FD">
<path d="M 309.500 113.319 C 307.300 115.566 306.288 116.809 307.250 116.080 C 308.213 115.351 309.056 115.035 309.125 115.378 C 309.194 115.720 309.306 115.622 309.375 115.160 C 309.444 114.699 310.400 113.176 311.500 111.777 C 312.600 110.377 311.700 111.071 309.500 113.319 "/></g>
<g fill="#C9AC71FD" stroke="#C9AC71FD">
<path d="M 277.500 76.449 L 273.500 80.559 277.500 76.449 L 281.500 72.338 277.500 76.449 "/></g>
<g fill="#FDF4CDFD" stroke="#FDF4CDFD">
<path d="M 284.311 68.769 L 282.123 71.500 285.161 69.033 C 286.832 67.676 287.817 66.448 287.349 66.303 C 286.882 66.158 285.515 67.268 284.311 68.769 "/></g>
<g fill="#FDF4CDFD" stroke="#FDF4CDFD">
<path d="M 327.000 42.779 C 323.682 44.390 323.761 44.392 328.500 42.803 C 331.250 41.882 332.825 41.117 332.000 41.103 C 331.175 41.089 328.925 41.843 327.000 42.779 "/></g>
<g fill="#D0D9E0FD" stroke="#D0D9E0FD">
<path d="M 279.901 440.983 C 281.222 442.129 282.797 442.898 283.401 442.694 C 284.006 442.490 282.925 441.553 281.000 440.612 L 277.500 438.901 279.901 440.983 "/></g>
<g fill="#D0D9E0FD" stroke="#D0D9E0FD">
<path d="M 461.475 352.508 C 460.223 356.845 460.419 357.963 461.840 354.599 C 462.514 353.003 462.902 351.206 462.702 350.606 C 462.502 350.006 461.950 350.862 461.475 352.508 "/></g>
<g fill="#D0D9E0FD" stroke="#D0D9E0FD">
<path d="M 394.970 149.944 C 396.116 152.085 398.018 153.585 397.968 152.309 C 397.924 151.194 395.431 148.000 394.605 148.000 C 394.233 148.000 394.398 148.875 394.970 149.944 "/></g>
<g fill="#C9AC71FD" stroke="#C9AC71FD">
<path d="M 245.168 127.949 C 244.583 129.627 244.482 131.000 244.944 131.000 C 245.860 131.000 247.367 126.034 246.664 125.331 C 246.426 125.093 245.753 126.271 245.168 127.949 "/></g>
<g fill="#FDF4CDFD" stroke="#FDF4CDFD">
<path d="M 292.269 62.373 C 290.491 63.543 289.141 64.814 289.269 65.198 C 289.396 65.582 290.850 64.625 292.500 63.072 L 295.500 60.247 292.269 62.373 "/></g>
</svg>
